<svg xmlns="http://www.w3.org/2000/svg" viewBox="0 0 91.92 79.61"><defs><style>.jewel{fill:hsl(41, 100%, 48%);}@media (prefers-color-scheme: dark) {.jewel{fill:hsl(41, 100%, 48%);}}</style></defs><g id="Layer_2" data-name="Layer 2"><g id="FINAL_Logos" data-name="FINAL Logos"><path class="jewel" d="M68.94,0H23L0,39.8,23,79.61h1.67V42.32h0s0-1,0-1a20.9,20.9,0,0,1,11.69-19l1.09,8.19a14,14,0,0,0-5.1,10.82,13.64,13.64,0,1,0,27.27,0,14,14,0,0,0-5.35-11l1.08-8.12A20.88,20.88,0,0,1,67.27,41.27,21,21,0,0,1,46,62.49a21.46,21.46,0,0,1-13.61-4.74V79.61H68.94l23-39.81ZM49.8,39.68a3.65,3.65,0,0,1-3.64,3.64h-.4a3.65,3.65,0,0,1-3.64-3.64V20a3.65,3.65,0,0,1,3.64-3.64h.4A3.65,3.65,0,0,1,49.8,20Z"/><path class="jewel" d="M86.37,79.61A5.41,5.41,0,0,1,82.44,78a5.24,5.24,0,0,1-1.62-3.88,5.55,5.55,0,0,1,11.1,0A5.24,5.24,0,0,1,90.3,78,5.41,5.41,0,0,1,86.37,79.61Zm0-.81a4.68,4.68,0,1,0-3.3-8,4.64,4.64,0,0,0,0,6.6A4.53,4.53,0,0,0,86.37,78.8ZM84.2,77.22V71h2.19a2.91,2.91,0,0,1,1.65.45,1.56,1.56,0,0,1,.67,1.37,1.63,1.63,0,0,1-.38,1.1,1.9,1.9,0,0,1-1.06.58L89,77.22H87.59l-1.47-2.61h-.8v2.61Zm1.12-3.51h.9a2.19,2.19,0,0,0,1-.2.75.75,0,0,0,.39-.72.69.69,0,0,0-.36-.66,1.81,1.81,0,0,0-.89-.19h-1Z"/></g></g></svg>
